<svg data-v-0dd9719b="" version="1.0" xmlns="http://www.w3.org/2000/svg" xmlns:xlink="http://www.w3.org/1999/xlink" width="100%" height="100%" viewBox="0 0 340.000000 250.000000" preserveAspectRatio="xMidYMid meet" color-interpolation-filters="sRGB" style="margin: auto;"> <rect data-v-0dd9719b="" x="0" y="0" width="100%" height="100%" fill="#fff" fill-opacity="1" class="background"></rect> <rect data-v-0dd9719b="" x="0" y="0" width="100%" height="100%" fill="url(#watermark)" fill-opacity="1" class="watermarklayer"></rect> <g data-v-0dd9719b="" fill="#333" class="icon-text-wrapper icon-svg-group iconsvg" transform="translate(80.47000122070312,90.27740478515625)"><g class="iconsvg-imagesvg" transform="translate(0,4.724395751953125)"><g><rect fill="#333" fill-opacity="0" stroke-width="2" x="0" y="0" width="60" height="59.996400215987045" class="image-rect"></rect> <svg x="0" y="0" width="60" height="59.996400215987045" filtersec="colorsb6532916228" class="image-svg-svg primary" style="overflow: visible;"><svg xmlns="http://www.w3.org/2000/svg" viewBox="-0.005915164947509766 -0.0032501220703125 100.00916290283203 100.00305938720703"><path d="M97.79 58.53L87.06 44.81a58.94 58.94 0 0 1-5-7.79L72.32 42l-9.14 27.73 4.92 9.75a60.75 60.75 0 0 1 8.64-3.3l16.78-4.67c6.48-1.81 8.48-7.65 4.27-12.98z" fill="#00d495"></path><path d="M30.27 63.18l-9.76 4.92a58.55 58.55 0 0 1 3.31 8.64l4.67 16.78c1.81 6.52 7.65 8.45 13 4.27l13.7-10.73a58.94 58.94 0 0 1 7.79-5l-4.93-9.75z" fill="#7fe000"></path><path d="M36.82 30.27l-4.93-9.76a57.37 57.37 0 0 1-8.63 3.31L6.48 28.49C0 30.3-2 36.14 2.2 41.47l10.74 13.72a58.94 58.94 0 0 1 5 7.79l9.75-4.93z" fill="#00a2ff"></path><path d="M69.73 36.82l9.75-4.92a60 60 0 0 1-3.3-8.64L71.51 6.48C69.7 0 63.85-2 58.53 2.21L44.81 12.94a58.94 58.94 0 0 1-7.79 5L42 27.68z" fill="#00c0d9"></path></svg></svg> <!----></g></g> <g transform="translate(67,0)"><g data-gra="path-name" fill-rule="" class="tp-name iconsvg-namesvg"><g transform="scale(1)"><g><path d="M0 0L8.78-41.27 22.88-41.27 15.21-5.46 28.41-5.46 27.3 0 0 0ZM55.45-41.93L55.45-41.93Q61.03-41.93 64.51-40.5 67.99-39.07 70-36.08L70-36.08Q71.31-34.06 72.02-31.53 72.73-28.99 72.73-25.68L72.73-25.68Q72.73-22.82 72.22-19.96 71.7-17.09 70.75-14.46 69.81-11.83 68.48-9.52 67.14-7.21 65.52-5.46L65.52-5.46Q62.47-2.15 58.47-0.81 54.47 0.52 48.62 0.52L48.62 0.52Q42.97 0.52 39.52-0.65 36.08-1.82 34.06-4.42L34.06-4.42Q32.63-6.24 31.82-9.04 31-11.83 31-16.05L31-16.05Q31-23.27 33.57-28.96 36.14-34.65 40.89-37.96L40.89-37.96Q43.75-39.98 47.26-40.95 50.77-41.93 55.45-41.93ZM48.1-4.03L48.1-4.03Q49.59-4.03 50.93-5.36 52.26-6.7 53.4-8.94 54.53-11.18 55.48-14.04 56.42-16.9 57.07-19.96 57.72-23.01 58.08-26.03 58.44-29.05 58.44-31.53L58.44-31.53Q58.44-34.91 57.75-36.17 57.07-37.44 55.77-37.44L55.77-37.44Q54.28-37.44 52.91-36.14 51.55-34.84 50.34-32.66 49.14-30.48 48.2-27.66 47.26-24.83 46.57-21.84 45.89-18.85 45.53-15.93 45.17-13 45.17-10.53L45.17-10.53Q45.17-6.83 45.99-5.43 46.8-4.03 48.1-4.03ZM109.66-29.32L98.86-29.32Q99.06-30.29 99.06-31.98L99.06-31.98Q99.06-32.95 98.93-33.9 98.8-34.84 98.47-35.59 98.15-36.34 97.5-36.76 96.85-37.18 95.81-37.18L95.81-37.18Q94.64-37.18 93.66-36.66 92.69-36.14 91.94-35.33 91.19-34.52 90.77-33.44 90.35-32.37 90.35-31.2L90.35-31.2Q90.35-29.51 91.23-28.6 92.1-27.69 93.53-27.11 94.97-26.52 96.78-26.13 98.6-25.74 100.55-25.22L100.55-25.22Q102.18-24.77 103.8-24.05 105.43-23.34 106.7-22.13 107.97-20.93 108.75-19.01 109.53-17.09 109.53-14.24L109.53-14.24Q109.53-10.14 107.9-7.35 106.28-4.55 103.41-2.79 100.55-1.04 96.62-0.26 92.69 0.52 88.07 0.52L88.07 0.52Q83.39 0.52 80.44-0.1 77.48-0.72 75.79-1.43L75.79-1.43Q73.77-2.27 72.8-3.38L72.8-3.38 75.01-12.29 86.45-12.29Q86.38-11.7 86.32-10.69 86.25-9.69 86.25-9.1L86.25-9.1Q86.25-8.32 86.45-7.48 86.64-6.63 87.07-5.92 87.49-5.2 88.27-4.75 89.05-4.29 90.22-4.29L90.22-4.29Q91.52-4.29 92.53-4.88 93.53-5.46 94.22-6.34 94.9-7.21 95.26-8.29 95.61-9.36 95.61-10.4L95.61-10.4Q95.61-11.83 94.93-12.8 94.25-13.78 93.08-14.46 91.91-15.15 90.38-15.63 88.85-16.12 87.23-16.64L87.23-16.64Q85.67-17.09 83.95-17.75 82.22-18.39 80.8-19.57 79.36-20.73 78.42-22.52 77.48-24.31 77.48-27.11L77.48-27.11Q77.48-31.27 79.59-34.09 81.7-36.92 84.92-38.68 88.14-40.43 91.97-41.18 95.81-41.93 99.25-41.93L99.25-41.93Q103.8-41.93 107.09-40.85 110.37-39.78 112.06-38.35L112.06-38.35 109.66-29.32Z" transform="translate(0, 41.93000030517578)"></path></g> <!----> <!----> <!----> <!----> <!----> <!----> <g data-gra="path-name-1" fill="#333" transform="translate(0,45.45000076293945)"><g transform="scale(0.98705)"><path d="M18.05-23.64L20.62 0 11.91 0 11.39-5.92 4.5-5.92 1.86 0-1.75 0 9.23-23.64 18.05-23.64ZM10.27-18.76L5.73-8.64 11.13-8.64 10.27-18.76ZM47.35-23.64L42.25 0 33.54 0 29.41-17.09 25.76 0 22.41 0 27.43-23.64 36.33-23.64 40.24-6.33 43.92-23.64 47.35-23.64ZM57.06 0L46.38 0 51.41-23.64 61.42-23.64Q63.73-23.64 65.46-23.17 67.19-22.71 68.32-21.63 69.46-20.55 70.04-18.8 70.61-17.05 70.61-14.52L70.61-14.52Q70.61-11.8 69.92-9.19 69.24-6.59 67.64-4.54 66.03-2.49 63.45-1.25 60.86 0 57.06 0L57.06 0ZM54.98-2.61L56.58-2.61Q57.81-2.61 58.76-3.63 59.71-4.65 60.4-6.23 61.08-7.82 61.55-9.73 62.01-11.65 62.29-13.44 62.57-15.22 62.7-16.64 62.83-18.05 62.83-18.65L62.83-18.65Q62.83-19.8 62.37-20.45 61.9-21.11 60.75-21.11L60.75-21.11 58.96-21.11 54.98-2.61ZM71.02 0L76.05-23.64 91.72-23.64 91.12-20.81 83.53-20.81 81.97-13.62 88.33-13.62 87.74-10.83 81.37-10.83 79.66-2.87 87.25-2.87 86.69 0 71.02 0ZM110.4-16.79L104.23-16.79Q104.34-17.35 104.34-18.31L104.34-18.31Q104.34-18.87 104.26-19.41 104.19-19.95 104-20.38 103.82-20.81 103.44-21.05 103.07-21.29 102.48-21.29L102.48-21.29Q101.81-21.29 101.25-20.99 100.69-20.7 100.26-20.23 99.83-19.77 99.59-19.15 99.35-18.54 99.35-17.87L99.35-17.87Q99.35-16.9 99.85-16.38 100.35-15.86 101.17-15.52 101.99-15.19 103.03-14.96 104.08-14.74 105.19-14.44L105.19-14.44Q106.12-14.18 107.05-13.77 107.99-13.36 108.71-12.67 109.44-11.99 109.88-10.89 110.33-9.79 110.33-8.15L110.33-8.15Q110.33-5.81 109.4-4.21 108.47-2.61 106.83-1.6 105.19-0.6 102.94-0.15 100.69 0.3 98.05 0.3L98.05 0.3Q95.37 0.3 93.67-0.06 91.98-0.41 91.01-0.82L91.01-0.82Q89.86-1.3 89.3-1.94L89.3-1.94 90.56-7.04 97.12-7.04Q97.08-6.7 97.04-6.12 97-5.55 97-5.21L97-5.21Q97-4.76 97.12-4.28 97.23-3.8 97.47-3.39 97.71-2.98 98.16-2.72 98.61-2.46 99.28-2.46L99.28-2.46Q100.02-2.46 100.6-2.79 101.17-3.13 101.56-3.63 101.96-4.13 102.16-4.75 102.36-5.36 102.36-5.96L102.36-5.96Q102.36-6.77 101.97-7.33 101.58-7.89 100.91-8.28 100.24-8.67 99.37-8.95 98.49-9.23 97.56-9.53L97.56-9.53Q96.67-9.79 95.68-10.16 94.7-10.53 93.88-11.2 93.06-11.87 92.52-12.9 91.98-13.92 91.98-15.52L91.98-15.52Q91.98-17.9 93.19-19.52 94.4-21.14 96.24-22.15 98.08-23.15 100.28-23.58 102.48-24.01 104.45-24.01L104.45-24.01Q107.05-24.01 108.93-23.39 110.81-22.78 111.78-21.96L111.78-21.96 110.4-16.79Z" transform="translate(1.75, 24.010000228881836)"></path></g></g></g></g> <!----></g></g><defs v-gra="od"></defs></svg>